#!OML:ASF G:\JayActor3\Patient Classification 1\Patient 1\Session 6\male.ASF
:FULLY-SPECIFIED
:DEGREES
2418
root 8.04777 15.1479 -19.1804 190.6 -50.5889 -175.054
lowerback 35.1763 -1.12141 0.508624
upperback 12.945 -3.98417 -3.28174
thorax -3.75241 -2.78188 -2.29146
lowerneck -2.79195 -0.937932 0.916939
upperneck -41.4407 -5.05035 4.28712
head -13.5952 -5.20486 2.62285
rclavicle -6.67916e-014 9.54166e-015
rhumerus 26.9759 -20.7471 -9.60854
rradius 132.66
rwrist -57.951
rhand -44.7673 -13.5946
rfingers 7.12502
rthumb -17.5598 -42.8216
lclavicle -6.67916e-014 9.54166e-015
lhumerus -10.7949 -8.25606 63.6986
lradius 63.1367
lwrist 26.6099
lhand -19.5429 9.71176
lfingers 7.12502
lthumb 6.78111 39.5832
rfemur -54.2221 -4.87623 24.6522
rtibia 62.9584
rfoot -22.6345 -14.5205
rtoes -4.86899
lfemur -54.9475 12.137 -23.5724
ltibia 58.6404
lfoot -18.9043 12.6786
ltoes -0.501441
2419
root 8.04243 15.1555 -19.1775 190.62 -50.5906 -174.994
lowerback 35.1399 -1.12412 0.517353
upperback 12.9337 -3.97918 -3.27814
thorax -3.75202 -2.77749 -2.29496
lowerneck -2.79938 -0.931902 0.908871
upperneck -41.4559 -5.03575 4.3162
head -13.6 -5.20283 2.63587
rclavicle -3.65764e-014 -1.59028e-014
rhumerus 26.9687 -20.7189 -9.5043
rradius 132.694
rwrist -58.3744
rhand -44.7323 -13.7878
rfingers 7.12502
rthumb -17.5261 -43.0178
lclavicle -3.65764e-014 -1.59028e-014
lhumerus -10.8213 -8.11216 63.6882
lradius 63.1564
lwrist 26.6525
lhand -19.5989 9.72339
lfingers 7.12502
lthumb 6.72706 39.5965
rfemur -54.2153 -4.88311 24.6771
rtibia 62.8379
rfoot -22.5854 -14.4982
rtoes -4.84456
lfemur -54.952 12.1314 -23.5608
ltibia 58.5389
lfoot -18.8734 12.6635
ltoes -0.489028
2420
root 8.03762 15.1619 -19.1744 190.656 -50.6117 -174.945
lowerback 35.1009 -1.13482 0.525662
upperback 12.9186 -3.9827 -3.27504
thorax -3.75529 -2.77659 -2.29581
lowerneck -2.7995 -0.927014 0.903692
upperneck -41.4711 -5.0246 4.33702
head -13.6067 -5.20125 2.64559
rclavicle -2.54444e-014 3.65764e-014
rhumerus 26.9542 -20.667 -9.40035
rradius 132.733
rwrist -58.7639
rhand -44.6964 -13.9665
rfingers 7.12502
rthumb -17.4915 -43.1995
lclavicle -2.54444e-014 3.65764e-014
lhumerus -10.8487 -7.97793 63.6729
lradius 63.1745
lwrist 26.7228
lhand -19.6768 9.73361
lfingers 7.12502
lthumb 6.6518 39.6091
rfemur -54.2286 -4.90477 24.6984
rtibia 62.7367
rfoot -22.542 -14.4823
rtoes -4.82891
lfemur -54.9768 12.1099 -23.557
ltibia 58.4505
lfoot -18.8357 12.6445
ltoes -0.487513
2421
root 8.0331 15.1673 -19.1713 190.701 -50.6481 -174.907
lowerback 35.0593 -1.15244 0.534685
upperback 12.9034 -3.99417 -3.27441
thorax -3.7583 -2.7792 -2.29702
lowerneck -2.79133 -0.923145 0.897524
upperneck -41.4866 -5.01517 4.35389
head -13.6152 -5.19922 2.65428
rclavicle 0 -1.35174e-014
rhumerus 26.9392 -20.5989 -9.3048
rradius 132.777
rwrist -59.1313
rhand -44.6641 -14.1146
rfingers 7.12502
rthumb -17.4604 -43.3505
lclavicle 0 -1.35174e-014
lhumerus -10.8712 -7.85255 63.6508
lradius 63.1851
lwrist 26.8034
lhand -19.755 9.74427
lfingers 7.12502
lthumb 6.57631 39.6222
rfemur -54.2558 -4.93739 24.7152
rtibia 62.6551
rfoot -22.5047 -14.4753
rtoes -4.8257
lfemur -55.0141 12.0764 -23.5601
ltibia 58.3746
lfoot -18.7941 12.6242
ltoes -0.503819
2422
root 8.02905 15.1716 -19.168 190.762 -50.7006 -174.884
lowerback 35.0155 -1.17486 0.540031
upperback 12.8879 -4.01223 -3.27532
thorax -3.76117 -2.78478 -2.29575
lowerneck -2.78142 -0.920673 0.890967
upperneck -41.4971 -5.0074 4.36724
head -13.6218 -5.1967 2.66134
rclavicle 6.20208e-014 4.29375e-014
rhumerus 26.9251 -20.5246 -9.22234
rradius 132.823
rwrist -59.4811
rhand -44.6281 -14.232
rfingers 7.12502
rthumb -17.4258 -43.4709
lclavicle 6.20208e-014 4.29375e-014
lhumerus -10.884 -7.73362 63.6245
lradius 63.1865
lwrist 26.8804
lhand -19.8022 9.7608
lfingers 7.12502
lthumb 6.53078 39.6401
rfemur -54.2996 -4.98086 24.7243
rtibia 62.5931
rfoot -22.4752 -14.4752
rtoes -4.83432
lfemur -55.0645 12.0311 -23.5742
ltibia 58.3087
lfoot -18.749 12.6
ltoes -0.531738
2423
root 8.0252 15.1753 -19.1646 190.83 -50.76 -174.874
lowerback 34.9732 -1.19802 0.541524
upperback 12.8749 -4.03329 -3.28038
thorax -3.76204 -2.79196 -2.29583
lowerneck -2.77224 -0.919968 0.886505
upperneck -41.5007 -5.00075 4.37898
head -13.6249 -5.19398 2.66676
rclavicle -2.70347e-014 1.66979e-014
rhumerus 26.9132 -20.4535 -9.15964
rradius 132.868
rwrist -59.8189
rhand -44.5827 -14.3134
rfingers 7.12502
rthumb -17.3821 -43.5561
lclavicle -2.70347e-014 1.66979e-014
lhumerus -10.8839 -7.62176 63.5921
lradius 63.1794
lwrist 26.9445
lhand -19.8092 9.77977
lfingers 7.12502
lthumb 6.524 39.6593
rfemur -54.3484 -5.02769 24.7242
rtibia 62.5443
rfoot -22.4516 -14.479
rtoes -4.84068
lfemur -55.1161 11.9791 -23.5959
ltibia 58.2488
lfoot -18.7052 12.5722
ltoes -0.550001
2424
root 8.021 15.1786 -19.1612 190.895 -50.8166 -174.871
lowerback 34.9343 -1.21863 0.539317
upperback 12.8651 -4.05366 -3.2884
thorax -3.76077 -2.79921 -2.29728
lowerneck -2.76816 -0.921038 0.885206
upperneck -41.494 -4.99601 4.38704
head -13.6222 -5.19134 2.6692
rclavicle -8.11041e-014 6.83819e-014
rhumerus 26.9067 -20.385 -9.11798
rradius 132.914
rwrist -60.1589
rhand -44.5363 -14.3532
rfingers 7.12502
rthumb -17.3374 -43.5999
lclavicle -8.11041e-014 6.83819e-014
lhumerus -10.8731 -7.51087 63.5595
lradius 63.165
lwrist 26.9836
lhand -19.7743 9.80071
lfingers 7.12502
lthumb 6.55772 39.6792
rfemur -54.3924 -5.07148 24.7171
rtibia 62.5018
rfoot -22.4281 -14.4879
rtoes -4.86372
lfemur -55.1596 11.9272 -23.6215
ltibia 58.1916
lfoot -18.6641 12.5467
ltoes -0.571195
2425
root 8.01612 15.182 -19.1578 190.954 -50.8622 -174.871
lowerback 34.8997 -1.23293 0.533524
upperback 12.8591 -4.06909 -3.29936
thorax -3.75664 -2.80464 -2.30159
lowerneck -2.76775 -0.923343 0.887156
upperneck -41.4797 -4.99335 4.38947
head -13.6153 -5.18877 2.66813
rclavicle 1.35174e-013 3.10104e-014
rhumerus 26.9033 -20.3215 -9.09649
rradius 132.96
rwrist -60.4948
rhand -44.4875 -14.3581
rfingers 7.12502
rthumb -17.2904 -43.6089
lclavicle 1.35174e-013 3.10104e-014
lhumerus -10.8526 -7.4082 63.5273
lradius 63.1472
lwrist 27.0016
lhand -19.7179 9.81939
lfingers 7.12502
lthumb 6.61214 39.6962
rfemur -54.4247 -5.10499 24.7019
rtibia 62.4604
rfoot -22.4038 -14.4982
rtoes -4.88825
lfemur -55.188 11.8801 -23.6476
ltibia 58.1349
lfoot -18.6306 12.5226
ltoes -0.572839
2426
root 8.01018 15.1856 -19.1542 190.999 -50.8927 -174.874
lowerback 34.8764 -1.23978 0.525815
upperback 12.857 -4.07838 -3.31533
thorax -3.75231 -2.80776 -2.31189
lowerneck -2.76657 -0.92562 0.896535
upperneck -41.462 -4.99183 4.38311
head -13.6075 -5.18623 2.662
rclavicle 1.43125e-014 6.36111e-015
rhumerus 26.8982 -20.2612 -9.09202
rradius 133.006
rwrist -60.8164
rhand -44.432 -14.3403
rfingers 7.12502
rthumb -17.237 -43.5958
lclavicle 1.43125e-014 6.36111e-015
lhumerus -10.8255 -7.3185 63.497
lradius 63.129
lwrist 27.0046
lhand -19.6579 9.83164
lfingers 7.12502
lthumb 6.67007 39.7066
rfemur -54.4359 -5.12887 24.6762
rtibia 62.417
rfoot -22.3783 -14.5055
rtoes -4.92441
lfemur -55.1921 11.838 -23.674
ltibia 58.0781
lfoot -18.6064 12.5054
ltoes -0.565867
2427
root 8.00292 15.1893 -19.1507 191.031 -50.9045 -174.88
lowerback 34.8633 -1.23767 0.51375
upperback 12.8585 -4.08022 -3.33389
thorax -3.74723 -2.8081 -2.32487
lowerneck -2.75819 -0.925916 0.909808
upperneck -41.4496 -4.99089 4.36529
head -13.6043 -5.18311 2.65131
rclavicle -6.99722e-014 -9.62118e-014
rhumerus 26.8939 -20.2042 -9.09848
rradius 133.046
rwrist -61.1191
rhand -44.3719 -14.3024
rfingers 7.12502
rthumb -17.1792 -43.563
lclavicle -6.99722e-014 -9.62118e-014
lhumerus -10.7963 -7.24408 63.4724
lradius 63.1123
lwrist 27.0036
lhand -19.6226 9.83494
lfingers 7.12502
lthumb 6.70412 39.7088
rfemur -54.4265 -5.14039 24.6403
rtibia 62.3721
rfoot -22.3472 -14.5135
rtoes -4.98558
lfemur -55.1718 11.8029 -23.6999
ltibia 58.0228
lfoot -18.5933 12.4989
ltoes -0.55757
